<svg xmlns="http://www.w3.org/2000/svg" viewBox="0 0 64 64">
  <defs>
    <linearGradient id="bg" x1="0" y1="0" x2="1" y2="1">
      <stop offset="0" stop-color="#6366f1"/>
      <stop offset="1" stop-color="#4338ca"/>
    </linearGradient>
  </defs>
  <rect x="2" y="2" width="60" height="60" rx="14" fill="url(#bg)"/>
  <!-- 便签纸 -->
  <path d="M20 12h16l12 12v26a2 2 0 0 1-2 2H20a2 2 0 0 1-2-2V14a2 2 0 0 1 2-2z" fill="#ffffff"/>
  <!-- 折角 -->
  <path d="M36 12l12 12H36z" fill="#c7d2fe"/>
  <!-- 文字行 -->
  <rect x="24" y="30" width="16" height="3" rx="1.5" fill="#a5b4fc"/>
  <rect x="24" y="37" width="16" height="3" rx="1.5" fill="#a5b4fc"/>
  <rect x="24" y="44" width="9" height="3" rx="1.5" fill="#a5b4fc"/>
  <!-- 铅笔 -->
  <g transform="rotate(45 44 40)">
    <rect x="40.5" y="26" width="7" height="17" rx="2" fill="#fbbf24"/>
    <path d="M40.5 43h7L44 51z" fill="#ffffff"/>
  </g>
</svg>
